<svg id="logo" width="220" height="25" viewBox="0 0 978 80" fill="none" xmlns="http://www.w3.org/2000/svg">
<path d="M892.005 80.1363L892.024 80.1448L892.044 80.1529C895.596 81.6448 899.548 82.364 903.86 82.364C907.917 82.364 911.603 81.6759 914.859 80.2285L914.871 80.2234L914.882 80.2182C918.171 78.7169 920.82 76.6243 922.713 73.898C924.612 71.1635 925.56 68.0712 925.56 64.696V64.671L925.559 64.646C925.486 61.0002 924.454 57.8095 922.273 55.2959C920.359 53.0196 918.023 51.3112 915.29 50.1982C912.777 49.1137 909.591 48.0578 905.768 47.0208C902.825 46.2065 900.554 45.4995 898.927 44.8998C897.552 44.3121 896.439 43.5952 895.552 42.7706C894.972 42.1347 894.648 41.3398 894.648 40.216C894.648 38.8904 895.151 37.864 896.398 36.9608C897.696 36.0211 899.62 35.42 902.42 35.42C905.409 35.42 907.467 36.1487 908.877 37.3315L908.892 37.344L908.907 37.3563C910.391 38.562 911.204 40.117 911.35 42.214L911.512 44.54H913.844H922.58H925.208L925.077 41.9151C924.79 36.174 922.596 31.4533 918.407 28.0122C914.271 24.6148 908.959 23.028 902.708 23.028C898.641 23.028 894.925 23.7512 891.61 25.2603C888.33 26.6901 885.678 28.7103 883.777 31.3709C881.882 34.024 880.912 36.9936 880.912 40.216C880.912 44.0409 881.893 47.3963 884.069 50.0551L884.095 50.0871L884.122 50.1182C886.147 52.4318 888.55 54.2195 891.319 55.458L891.355 55.474L891.391 55.4889C894.026 56.57 897.341 57.6264 901.305 58.6662L901.315 58.6687L901.325 58.6712C905.552 59.7438 908.463 60.7996 910.218 61.7869L910.244 61.8017L910.271 61.8158C910.964 62.1843 911.367 62.589 911.608 62.9882C911.848 63.3865 912.016 63.9241 912.016 64.696C912.016 66.0892 911.475 67.2373 910.115 68.28C908.769 69.3117 906.745 69.972 903.764 69.972C900.572 69.972 898.232 69.2361 896.532 67.9794C894.892 66.7203 894.053 65.1996 893.868 63.3012L893.648 61.044H891.38H882.356H879.701L879.86 63.6937C880.08 67.3634 881.266 70.681 883.422 73.5797L883.431 73.5923L883.44 73.6047C885.587 76.418 888.474 78.5827 892.005 80.1363Z" stroke="#FFFBFB" stroke-width="5"/>
<path d="M870.966 81.5H873.466V79V47.992C873.466 40.2497 871.351 33.9467 866.76 29.4989C862.254 25.0701 856.408 22.932 849.461 22.932C845.524 22.932 841.848 23.7434 838.475 25.3945L838.465 25.3992L838.455 25.4039C837.238 26.0129 836.107 26.717 835.065 27.5156V26.392V23.892H832.565H823.83H821.33V26.392V79V81.5H823.83H832.565H835.065V79V49.912C835.065 44.7965 836.311 41.3133 838.415 39.0525C840.62 36.7514 843.602 35.516 847.638 35.516C851.624 35.516 854.495 36.7276 856.561 38.9443L856.57 38.9548L856.58 38.9652C858.615 41.0996 859.826 44.387 859.826 49.24V79V81.5H862.326H870.966Z" stroke="#FFFBFB" stroke-width="5"/>
<path d="M770.698 78.681L770.706 78.6852L770.713 78.6894C775.142 81.1498 780.044 82.364 785.367 82.364C790.749 82.364 795.71 81.1525 800.199 78.6974C804.701 76.2355 808.263 72.7407 810.857 68.2562C813.538 63.6673 814.843 58.4228 814.843 52.6C814.843 46.7929 813.577 41.5848 810.963 37.0576C808.437 32.5714 804.937 29.0991 800.488 26.6952C796.058 24.237 791.127 23.028 785.751 23.028C780.376 23.028 775.445 24.237 771.015 26.6952C766.558 29.1036 763.029 32.6118 760.443 37.1552L760.443 37.1552L760.436 37.1663C757.893 41.6876 756.659 46.8573 756.659 52.6C756.659 58.3906 757.854 63.6092 760.318 68.1852L760.329 68.2055L760.34 68.2256C762.861 72.7065 766.32 76.2093 770.698 78.681ZM798.667 62.0865L798.657 62.1041L798.647 62.1218C797.196 64.689 795.319 66.5418 793.02 67.7715C790.633 69.0485 788.094 69.684 785.367 69.684C782.63 69.684 780.166 69.0754 777.93 67.8803C775.777 66.6673 773.994 64.8337 772.598 62.2729C771.301 59.7775 770.587 56.5891 770.587 52.6C770.587 48.6864 771.328 45.5359 772.684 43.0418C774.081 40.4705 775.863 38.6725 778.005 37.5229L778.015 37.5178L778.024 37.5127C780.327 36.2514 782.856 35.612 785.655 35.612C788.382 35.612 790.879 36.2472 793.19 37.5127L793.211 37.5238L793.231 37.5346C795.445 38.6941 797.288 40.5037 798.743 43.0781C800.148 45.5643 800.915 48.7011 800.915 52.6C800.915 56.4839 800.122 59.6075 798.667 62.0865Z" stroke="#FFFBFB" stroke-width="5"/>
<path d="M750.034 26.392V23.892H747.534H738.798H736.298V26.392V79V81.5H738.798H747.534H750.034V79V26.392ZM737.318 17.8878C738.95 19.5197 740.999 20.348 743.31 20.348C745.579 20.348 747.573 19.503 749.135 17.8626C750.75 16.2348 751.57 14.1953 751.57 11.896C751.57 9.5967 750.75 7.55725 749.135 5.92944C747.573 4.28896 745.579 3.444 743.31 3.444C740.999 3.444 738.95 4.27228 737.318 5.90423C735.686 7.53622 734.858 9.58489 734.858 11.896C734.858 14.2071 735.686 16.2558 737.318 17.8878Z" stroke="#FFFBFB" stroke-width="5"/>
<path d="M695.411 80.1363L695.43 80.1448L695.45 80.1529C699.002 81.6448 702.955 82.364 707.266 82.364C711.324 82.364 715.009 81.6759 718.265 80.2285L718.277 80.2234L718.288 80.2182C721.577 78.7169 724.226 76.6243 726.119 73.898C728.018 71.1635 728.966 68.0712 728.966 64.696V64.671L728.966 64.646C728.893 61.0002 727.86 57.8095 725.679 55.2959C723.765 53.0196 721.429 51.3112 718.696 50.1982C716.184 49.1137 712.998 48.0578 709.174 47.0208C706.231 46.2065 703.96 45.4995 702.333 44.8998C700.958 44.3121 699.846 43.5952 698.958 42.7706C698.378 42.1347 698.054 41.3398 698.054 40.216C698.054 38.8904 698.557 37.864 699.804 36.9608C701.102 36.0211 703.026 35.42 705.826 35.42C708.815 35.42 710.873 36.1487 712.283 37.3315L712.298 37.344L712.314 37.3563C713.798 38.562 714.61 40.117 714.756 42.214L714.918 44.54H717.25H725.986H728.614L728.483 41.9151C728.196 36.174 726.002 31.4533 721.813 28.0122C717.677 24.6148 712.365 23.028 706.114 23.028C702.048 23.028 698.331 23.7512 695.016 25.2603C691.736 26.6901 689.084 28.7103 687.184 31.3709C685.289 34.024 684.318 36.9936 684.318 40.216C684.318 44.0409 685.3 47.3963 687.475 50.0551L687.501 50.0871L687.529 50.1182C689.553 52.4318 691.957 54.2195 694.725 55.458L694.761 55.474L694.797 55.4889C697.432 56.57 700.748 57.6264 704.712 58.6662L704.721 58.6687L704.731 58.6712C708.958 59.7438 711.869 60.7996 713.624 61.7869L713.651 61.8017L713.677 61.8158C714.371 62.1843 714.773 62.589 715.014 62.9882C715.254 63.3865 715.422 63.9241 715.422 64.696C715.422 66.0892 714.881 67.2373 713.521 68.28C712.175 69.3117 710.151 69.972 707.17 69.972C703.978 69.972 701.638 69.2361 699.939 67.9794C698.299 66.7203 697.459 65.1996 697.274 63.3012L697.054 61.044H694.786H685.762H683.108L683.267 63.6937C683.487 67.3634 684.672 70.681 686.828 73.5797L686.837 73.5923L686.847 73.6047C688.994 76.418 691.88 78.5827 695.411 80.1363Z" stroke="#FFFBFB" stroke-width="5"/>
<path d="M645.255 80.1363L645.274 80.1448L645.294 80.1529C648.846 81.6448 652.798 82.364 657.11 82.364C661.167 82.364 664.853 81.6759 668.109 80.2285L668.121 80.2234L668.132 80.2182C671.421 78.7169 674.07 76.6243 675.963 73.898C677.862 71.1635 678.81 68.0712 678.81 64.696V64.671L678.809 64.646C678.736 61.0002 677.704 57.8095 675.523 55.2959C673.609 53.0196 671.273 51.3112 668.54 50.1982C666.027 49.1137 662.841 48.0578 659.018 47.0208C656.075 46.2065 653.804 45.4995 652.177 44.8998C650.802 44.3121 649.689 43.5952 648.802 42.7706C648.222 42.1347 647.898 41.3398 647.898 40.216C647.898 38.8904 648.401 37.864 649.648 36.9608C650.946 36.0211 652.87 35.42 655.67 35.42C658.659 35.42 660.717 36.1487 662.127 37.3315L662.142 37.344L662.157 37.3563C663.641 38.562 664.454 40.117 664.6 42.214L664.762 44.54H667.094H675.83H678.458L678.327 41.9151C678.04 36.174 675.846 31.4533 671.657 28.0122C667.521 24.6148 662.209 23.028 655.958 23.028C651.891 23.028 648.175 23.7512 644.86 25.2603C641.58 26.6901 638.928 28.7103 637.027 31.3709C635.132 34.024 634.162 36.9936 634.162 40.216C634.162 44.0409 635.143 47.3963 637.319 50.0551L637.345 50.0871L637.372 50.1182C639.397 52.4318 641.8 54.2195 644.569 55.458L644.605 55.474L644.641 55.4889C647.276 56.57 650.591 57.6264 654.555 58.6662L654.565 58.6687L654.575 58.6712C658.802 59.7438 661.713 60.7996 663.468 61.7869L663.494 61.8017L663.521 61.8158C664.214 62.1843 664.617 62.589 664.858 62.9882C665.098 63.3865 665.266 63.9241 665.266 64.696C665.266 66.0892 664.725 67.2373 663.365 68.28C662.019 69.3117 659.995 69.972 657.014 69.972C653.822 69.972 651.482 69.2361 649.782 67.9794C648.142 66.7203 647.303 65.1996 647.118 63.3012L646.898 61.044H644.63H635.606H632.951L633.11 63.6937C633.33 67.3634 634.516 70.681 636.672 73.5797L636.681 73.5923L636.69 73.6047C638.837 76.418 641.724 78.5827 645.255 80.1363Z" stroke="#FFFBFB" stroke-width="5"/>
<path d="M626.667 58.46H628.921L629.153 56.2172C629.353 54.2859 629.455 52.4395 629.455 50.68C629.455 45.5095 628.315 40.8005 625.981 36.6174C623.707 32.3633 620.426 29.0191 616.187 26.6169C611.924 24.2012 607.073 23.028 601.706 23.028C596.213 23.028 591.238 24.233 586.851 26.7076C582.513 29.1271 579.139 32.6208 576.747 37.1231C574.348 41.638 573.19 46.8218 573.19 52.6C573.19 58.3906 574.385 63.6092 576.849 68.1852L576.853 68.1924L576.857 68.1995C579.309 72.684 582.703 76.1943 587.022 78.6724L587.03 78.6768L587.037 78.681C591.416 81.1526 596.326 82.364 601.706 82.364C608.409 82.364 614.208 80.6812 618.941 77.1673L618.95 77.16L618.96 77.1527C623.616 73.6257 626.751 69.0353 628.307 63.4467L629.19 60.276H625.898H616.49H614.713L614.129 61.9547C613.279 64.3991 611.814 66.3372 609.686 67.8282C607.701 69.2007 605.096 69.972 601.706 69.972C597.678 69.972 594.347 68.7352 591.572 66.2947C589.475 64.3575 588.065 61.7931 587.437 58.46H626.667ZM615.259 46.356H587.62C588.316 43.2235 589.696 40.8127 591.674 38.9955C594.326 36.6182 597.496 35.42 601.323 35.42C604.036 35.42 606.423 35.9823 608.534 37.0645L608.568 37.0819L608.602 37.0982C610.718 38.1035 612.364 39.5918 613.584 41.6065L613.591 41.6192L613.599 41.6318C614.427 42.9633 614.994 44.5251 615.259 46.356Z" stroke="#FFFBFB" stroke-width="5"/>
<path d="M568.769 36.092H571.269V33.592V26.392V23.892H568.769H560.229V22.648C560.229 19.464 560.952 17.8382 561.763 17.061L561.764 17.0595C562.658 16.2013 564.562 15.452 568.193 15.452H570.693V12.952V5.65601V3.15601H568.193C561.222 3.15601 555.582 4.56773 551.838 7.92089C548.094 11.267 546.493 16.3815 546.493 22.648V23.892H542.177H539.677V26.392V33.592V36.092H542.177H546.493V79V81.5H548.993H557.729H560.229V79V36.092H568.769Z" stroke="#FFFBFB" stroke-width="5"/>
<path d="M533.09 81.5H535.59V79V47.992C535.59 40.2497 533.476 33.9467 528.885 29.4989C524.379 25.0701 518.533 22.932 511.586 22.932C507.649 22.932 503.973 23.7434 500.6 25.3945L500.59 25.3992L500.58 25.4039C499.363 26.0129 498.232 26.717 497.19 27.5156V26.392V23.892H494.69H485.954H483.454V26.392V79V81.5H485.954H494.69H497.19V79V49.912C497.19 44.7965 498.436 41.3133 500.54 39.0525C502.745 36.7514 505.727 35.516 509.762 35.516C513.749 35.516 516.62 36.7276 518.685 38.9443L518.695 38.9548L518.705 38.9652C520.74 41.0996 521.95 44.387 521.95 49.24V79V81.5H524.45H533.09Z" stroke="#FFFBFB" stroke-width="5"/>
<path d="M432.823 78.681L432.831 78.6852L432.838 78.6894C437.267 81.1498 442.169 82.364 447.492 82.364C452.874 82.364 457.835 81.1525 462.324 78.6974C466.826 76.2355 470.388 72.7407 472.982 68.2562C475.663 63.6673 476.968 58.4228 476.968 52.6C476.968 46.7929 475.702 41.5848 473.088 37.0576C470.562 32.5714 467.062 29.0991 462.613 26.6952C458.183 24.237 453.252 23.028 447.876 23.028C442.501 23.028 437.57 24.237 433.139 26.6952C428.683 29.1037 425.154 32.6119 422.568 37.1552L422.568 37.1552L422.561 37.1663C420.018 41.6876 418.784 46.8573 418.784 52.6C418.784 58.3906 419.979 63.6092 422.443 68.1852L422.454 68.2055L422.465 68.2256C424.986 72.7065 428.445 76.2093 432.823 78.681ZM460.792 62.0865L460.782 62.1041L460.772 62.1218C459.321 64.689 457.444 66.5418 455.145 67.7715C452.758 69.0485 450.219 69.684 447.492 69.684C444.755 69.684 442.291 69.0754 440.055 67.8803C437.902 66.6673 436.119 64.8337 434.723 62.2729C433.426 59.7775 432.712 56.5891 432.712 52.6C432.712 48.6864 433.453 45.536 434.809 43.0418C436.206 40.4705 437.988 38.6725 440.13 37.5229L440.14 37.5178L440.149 37.5127C442.452 36.2514 444.981 35.612 447.78 35.612C450.507 35.612 453.004 36.2472 455.315 37.5127L455.336 37.5238L455.356 37.5346C457.57 38.6941 459.413 40.5037 460.868 43.0781C462.273 45.5643 463.04 48.7012 463.04 52.6C463.04 56.4839 462.247 59.6075 460.792 62.0865Z" stroke="#FFFBFB" stroke-width="5"/>
<path d="M362.298 13.4727L362.298 13.4727L362.286 13.4796C356.835 16.6536 352.522 21.0763 349.367 26.6991C346.191 32.2932 344.628 38.5798 344.628 45.496C344.628 52.4146 346.192 58.7031 349.37 64.2986C352.528 69.859 356.841 74.2458 362.286 77.4164L362.302 77.4258L362.318 77.4349C367.834 80.5375 373.924 82.076 380.536 82.076C388.242 82.076 395.089 80.2453 400.981 76.5022L400.989 76.4966L400.998 76.4909C406.906 72.6681 411.199 67.2781 413.873 60.4204L415.202 57.012H411.544H401.08H399.479L398.809 58.4666C397.144 62.084 394.775 64.7959 391.707 66.6943C388.717 68.5199 385.03 69.492 380.536 69.492C376.269 69.492 372.52 68.5034 369.224 66.5713C365.932 64.6412 363.339 61.92 361.435 58.3448C359.542 54.7277 358.556 50.4682 358.556 45.496C358.556 40.4497 359.546 36.1965 361.431 32.6546L361.435 32.6473L361.439 32.64C363.347 28.9976 365.94 26.2501 369.224 24.3247C372.52 22.3926 376.269 21.404 380.536 21.404C385.02 21.404 388.697 22.4032 391.684 24.2836L391.693 24.2891L391.701 24.2945C394.773 26.193 397.143 28.906 398.809 32.5254L399.479 33.98H401.08H411.544H415.189L413.876 30.5795C411.204 23.6594 406.913 18.2321 400.998 14.4051C395.104 10.5912 388.251 8.724 380.536 8.724C373.914 8.724 367.817 10.2994 362.298 13.4727Z" stroke="#FFFBFB" stroke-width="5"/>
<path d="M274.266 26.7196L274.258 26.724L274.25 26.7285C269.993 29.2119 266.666 32.7273 264.282 37.2118C261.878 41.6696 260.722 46.8261 260.722 52.6C260.722 58.4368 261.877 63.6539 264.278 68.1729C266.662 72.6609 269.991 76.1787 274.25 78.6634L274.258 78.6679L274.266 78.6724C278.588 81.1527 283.474 82.364 288.854 82.364C295.625 82.364 301.465 80.6466 306.203 77.0567L306.213 77.0495L306.222 77.0422C310.902 73.4259 314.018 68.6241 315.56 62.7374L316.381 59.604H313.142H303.734H301.853L301.332 61.4111C300.512 64.2532 299.061 66.3075 297.02 67.7359C294.968 69.1723 292.3 69.972 288.854 69.972C284.512 69.972 281.183 68.5033 278.626 65.6271C276.091 62.7744 274.65 58.5516 274.65 52.6C274.65 46.7166 276.088 42.5676 278.611 39.7822L278.619 39.7736L278.626 39.7649C281.183 36.8887 284.512 35.42 288.854 35.42C292.282 35.42 294.938 36.2428 296.986 37.728L296.998 37.7366L297.01 37.745C299.148 39.2575 300.579 41.2945 301.326 43.9621L301.838 45.788H303.734H313.142H316.317L315.572 42.7014C314.104 36.6217 311.02 31.7465 306.287 28.2301C301.599 24.6991 295.724 23.028 288.854 23.028C283.474 23.028 278.588 24.2393 274.266 26.7196Z" stroke="#FFFBFB" stroke-width="5"/>
<path d="M254.097 26.392V23.892H251.597H242.861H240.361V26.392V79V81.5H242.861H251.597H254.097V79V26.392ZM241.381 17.8878C243.013 19.5197 245.062 20.348 247.373 20.348C249.641 20.348 251.636 19.503 253.198 17.8626C254.813 16.2347 255.633 14.1953 255.633 11.896C255.633 9.59674 254.813 7.55727 253.198 5.92944C251.636 4.28896 249.641 3.444 247.373 3.444C245.062 3.444 243.013 4.27228 241.381 5.90423C239.749 7.53618 238.921 9.58484 238.921 11.896C238.921 14.2072 239.749 16.2558 241.381 17.8878Z" stroke="#FFFBFB" stroke-width="5"/>
<path d="M228.53 81.5H231.03V79V47.992C231.03 42.8148 230.042 38.251 227.94 34.408C225.867 30.6199 222.997 27.7246 219.333 25.815C215.729 23.8724 211.669 22.932 207.218 22.932C202.627 22.932 198.4 24.0685 194.598 26.3638C192.144 27.8456 190.122 29.7216 188.545 31.9736C186.878 29.6381 184.787 27.7207 182.273 26.25C178.452 24.0153 174.102 22.932 169.298 22.932C165.418 22.932 161.799 23.7464 158.484 25.4039L158.475 25.4089L158.465 25.4139C157.291 26.0139 156.199 26.7091 155.19 27.4979V26.392V23.892H152.69H143.954H141.454V26.392V79V81.5H143.954H152.69H155.19V79V50.008C155.19 44.8844 156.44 41.3983 158.55 39.1378L158.559 39.1278L158.569 39.1177C160.715 36.7674 163.621 35.516 167.57 35.516C171.406 35.516 174.176 36.7121 176.185 38.9217L176.205 38.9437L176.225 38.9652C178.26 41.0996 179.47 44.3871 179.47 49.24V79V81.5H181.97H190.61H193.11V79V50.008C193.11 44.8844 194.36 41.3983 196.47 39.1378L196.479 39.1278L196.489 39.1177C198.635 36.7674 201.541 35.516 205.49 35.516C209.326 35.516 212.096 36.7121 214.105 38.9217L214.125 38.9437L214.145 38.9652C216.18 41.0996 217.39 44.3871 217.39 49.24V79V81.5H219.89H228.53Z" stroke="#FFFBFB" stroke-width="5"/>
<path d="M90.8233 78.681L90.8307 78.6852L90.8381 78.6894C95.2669 81.1498 100.169 82.364 105.492 82.364C110.874 82.364 115.835 81.1525 120.324 78.6974C124.826 76.2355 128.388 72.7407 130.982 68.2562C133.663 63.6673 134.968 58.4227 134.968 52.6C134.968 46.7929 133.702 41.5848 131.088 37.0576C128.562 32.5714 125.062 29.0991 120.613 26.6952C116.183 24.237 111.252 23.028 105.876 23.028C100.501 23.028 95.5697 24.237 91.1395 26.6952C86.6827 29.1037 83.1538 32.6118 80.5676 37.1552L80.5676 37.1552L80.5613 37.1663C78.0181 41.6876 76.7842 46.8573 76.7842 52.6C76.7842 58.3906 77.979 63.6092 80.4431 68.1852L80.454 68.2055L80.4653 68.2256C82.9858 72.7065 86.4448 76.2093 90.8233 78.681ZM118.792 62.0865L118.782 62.1041L118.772 62.1218C117.321 64.689 115.444 66.5418 113.145 67.7715C110.758 69.0485 108.219 69.684 105.492 69.684C102.755 69.684 100.291 69.0754 98.0551 67.8803C95.9021 66.6673 94.1185 64.8337 92.723 62.2729C91.4257 59.7775 90.7122 56.5891 90.7122 52.6C90.7122 48.6864 91.4533 45.536 92.8088 43.0418C94.2063 40.4705 95.9879 38.6725 98.1303 37.5229L98.1397 37.5178L98.149 37.5127C100.452 36.2514 102.981 35.612 105.78 35.612C108.507 35.612 111.004 36.2472 113.315 37.5127L113.336 37.5238L113.356 37.5346C115.57 38.6941 117.413 40.5037 118.868 43.0781C120.273 45.5643 121.04 48.7012 121.04 52.6C121.04 56.4839 120.247 59.6075 118.792 62.0865Z" stroke="#FFFBFB" stroke-width="5"/>
<path d="M20.2978 13.4727L20.2978 13.4727L20.286 13.4796C14.8349 16.6536 10.5224 21.0763 7.36685 26.6991C4.19136 32.2932 2.62799 38.5798 2.62799 45.496C2.62799 52.4146 4.19243 58.7031 7.37009 64.2986C10.5279 69.859 14.8407 74.2458 20.286 77.4164L20.3021 77.4258L20.3183 77.4349C25.834 80.5375 31.9239 82.076 38.536 82.076C46.2424 82.076 53.0887 80.2453 58.9806 76.5022L58.9894 76.4966L58.9981 76.4909C64.9061 72.6681 69.1986 67.2781 71.8731 60.4204L73.2024 57.012H69.544H59.08H57.4786L56.809 58.4666C55.1439 62.084 52.7752 64.7959 49.7066 66.6943C46.7166 68.5199 43.0301 69.492 38.536 69.492C34.2691 69.492 30.5203 68.5034 27.2243 66.5713C23.9318 64.6412 21.3393 61.92 19.4348 58.3448C17.5418 54.7277 16.556 50.4682 16.556 45.496C16.556 40.4497 17.5457 36.1965 19.4309 32.6546L19.4347 32.6473L19.4386 32.64C21.3465 28.9976 23.9399 26.2501 27.2243 24.3247C30.5203 22.3926 34.2691 21.404 38.536 21.404C43.0197 21.404 46.6975 22.4032 49.684 24.2836L49.6927 24.2891L49.7014 24.2945C52.7725 26.193 55.143 28.9059 56.809 32.5254L57.4786 33.98H59.08H69.544H73.1893L71.8762 30.5795C69.2041 23.6594 64.9126 18.2321 58.9981 14.4051C53.104 10.5912 46.2513 8.724 38.536 8.724C31.9139 8.724 25.8166 10.2994 20.2978 13.4727Z" stroke="#FFFBFB" stroke-width="5"/>
</svg>
